<svg width="46" height="45" viewBox="0 0 46 45" fill="none" xmlns="http://www.w3.org/2000/svg">
<rect x="0.5" width="45" height="45" rx="15" fill="#B6B6B6"/>
<g clip-path="url(#clip0_63_14112)">
<path d="M32.7392 22.07C32.6892 21.56 32.2592 21.18 31.7492 21.18H24.1992C23.6492 21.18 23.1992 21.63 23.1992 22.18V23.89C23.1992 24.44 23.6492 24.89 24.1992 24.89H28.7092C28.5992 25.81 27.9992 27.2 26.6692 28.13C25.8192 28.72 24.6892 29.13 23.1992 29.13C23.1292 29.13 23.0692 29.13 22.9992 29.12C20.4492 29.04 18.2892 27.33 17.5092 24.98C17.2992 24.35 17.1792 23.69 17.1792 23C17.1792 22.31 17.2992 21.64 17.4992 21.02C17.5592 20.84 17.6292 20.66 17.7092 20.48C18.6292 18.41 20.6392 16.95 22.9992 16.88C23.0592 16.87 23.1292 16.87 23.1992 16.87C24.6292 16.87 25.6992 17.34 26.4492 17.86C26.8392 18.13 27.3592 18.07 27.6992 17.74L29.0892 16.38C29.5292 15.95 29.4892 15.22 28.9892 14.86C27.3992 13.69 25.4592 13 23.1992 13C23.1292 13 23.0692 13 22.9992 13.01C19.1692 13.08 15.8792 15.3 14.2692 18.51C13.5892 19.87 13.1992 21.39 13.1992 23C13.1992 24.61 13.5892 26.13 14.2692 27.49H14.2792C15.8892 30.7 19.1792 32.92 22.9992 32.99C23.0692 33 23.1292 33 23.1992 33C25.8992 33 28.1692 32.11 29.8192 30.58C31.7092 28.83 32.7992 26.27 32.7992 23.22C32.7992 22.79 32.7792 22.42 32.7392 22.07Z" fill="white"/>
</g>
<defs>
<clipPath id="clip0_63_14112">
<rect width="24" height="24" fill="white" transform="translate(11.5 11)"/>
</clipPath>
</defs>
</svg>
