<svg width="13" height="14" viewBox="0 0 13 14" fill="none" xmlns="http://www.w3.org/2000/svg">
<path d="M6.24609 9.37891C6.42839 9.54297 6.63802 9.625 6.875 9.625C7.11198 9.625 7.32161 9.54297 7.50391 9.37891L11.8789 5.00391C12.043 4.82161 12.125 4.61198 12.125 4.375C12.125 4.13802 12.043 3.92839 11.8789 3.74609C11.6966 3.58203 11.487 3.5 11.25 3.5C11.013 3.5 10.8034 3.58203 10.6211 3.74609L6.875 7.51953L3.12891 3.74609C2.94661 3.58203 2.73698 3.5 2.5 3.5C2.26302 3.5 2.05339 3.58203 1.87109 3.74609C1.70703 3.92839 1.625 4.13802 1.625 4.375C1.625 4.61198 1.70703 4.82161 1.87109 5.00391L6.24609 9.37891Z" fill="#5A5A5A"/>
</svg>
