<svg width="14" height="20" viewBox="0 0 14 20" fill="none" xmlns="http://www.w3.org/2000/svg">
<path d="M11.375 8.6875C11.3568 9.96354 10.9922 11.0846 10.2812 12.0508L13.7539 15.4961C13.918 15.6784 14 15.888 14 16.125C14 16.362 13.918 16.5716 13.7539 16.7539C13.5716 16.918 13.362 17 13.125 17C12.888 17 12.6784 16.918 12.4961 16.7539L9.05078 13.2812C8.08464 13.9922 6.96354 14.3568 5.6875 14.375C4.08333 14.3385 2.74349 13.7826 1.66797 12.707C0.592448 11.6315 0.0364583 10.2917 0 8.6875C0.0364583 7.08333 0.592448 5.74349 1.66797 4.66797C2.74349 3.59245 4.08333 3.03646 5.6875 3C7.29167 3.03646 8.63151 3.59245 9.70703 4.66797C10.7826 5.74349 11.3385 7.08333 11.375 8.6875ZM5.6875 12.625C6.39844 12.625 7.05469 12.4518 7.65625 12.1055C8.25781 11.7591 8.74089 11.276 9.10547 10.6562C9.45182 10.0365 9.625 9.38021 9.625 8.6875C9.625 7.99479 9.45182 7.33854 9.10547 6.71875C8.74089 6.09896 8.25781 5.61589 7.65625 5.26953C7.05469 4.92318 6.39844 4.75 5.6875 4.75C4.97656 4.75 4.32031 4.92318 3.71875 5.26953C3.11719 5.61589 2.63411 6.09896 2.26953 6.71875C1.92318 7.33854 1.75 7.99479 1.75 8.6875C1.75 9.38021 1.92318 10.0365 2.26953 10.6562C2.63411 11.276 3.11719 11.7591 3.71875 12.1055C4.32031 12.4518 4.97656 12.625 5.6875 12.625Z" fill="#5A5A5A"/>
</svg>
