<svg width="12" height="12" viewBox="0 0 12 12" fill="none" xmlns="http://www.w3.org/2000/svg">
<g clip-path="url(#clip0_31_255570)">
<path d="M8.69531 2.88281C7.94531 2.22656 7.04688 1.89062 6 1.875C4.82812 1.90625 3.85938 2.3125 3.09375 3.09375C2.3125 3.85938 1.90625 4.82812 1.875 6C1.90625 7.17188 2.3125 8.14062 3.09375 8.90625C3.85938 9.6875 4.82812 10.0938 6 10.125C6.95312 10.1094 7.78125 9.83594 8.48438 9.30469C8.76562 9.11719 9.02344 9.15625 9.25781 9.42188C9.44531 9.70312 9.40625 9.96094 9.14062 10.1953C8.25 10.8828 7.20312 11.2344 6 11.25C5.01562 11.2344 4.13281 10.9922 3.35156 10.5234C2.55469 10.0703 1.92969 9.44531 1.47656 8.64844C1.00781 7.86719 0.765625 6.98438 0.75 6C0.765625 5.01562 1.00781 4.13281 1.47656 3.35156C1.92969 2.55469 2.55469 1.92969 3.35156 1.47656C4.13281 1.00781 5.01562 0.765625 6 0.75C7.375 0.78125 8.53906 1.22656 9.49219 2.08594L10.2188 1.35938C10.375 1.20312 10.5703 1.125 10.8047 1.125C11.0391 1.125 11.2344 1.20312 11.3906 1.35938C11.5469 1.51562 11.625 1.71094 11.625 1.94531V4.6875C11.5938 5.03125 11.4062 5.21875 11.0625 5.25H8.32031C8.08594 5.25 7.89062 5.17188 7.73438 5.01562C7.57812 4.85938 7.5 4.66406 7.5 4.42969C7.5 4.19531 7.57812 4 7.73438 3.84375L8.69531 2.88281ZM10.5 2.67188L9.04688 4.125H10.5V2.67188Z" fill="#5A5A5A"/>
</g>
<defs>
<clipPath id="clip0_31_255570">
<rect width="12" height="12" fill="white" transform="matrix(1 0 0 -1 0 12)"/>
</clipPath>
</defs>
</svg>
