<svg width="16" height="16" viewBox="0 0 16 16" fill="none" xmlns="http://www.w3.org/2000/svg">
<path d="M12.666 7.33366H8.66602V3.33366C8.66602 3.15685 8.59578 2.98728 8.47075 2.86225C8.34573 2.73723 8.17616 2.66699 7.99935 2.66699C7.82254 2.66699 7.65297 2.73723 7.52794 2.86225C7.40292 2.98728 7.33268 3.15685 7.33268 3.33366V7.33366H3.33268C3.15587 7.33366 2.9863 7.4039 2.86128 7.52892C2.73625 7.65394 2.66602 7.82351 2.66602 8.00033C2.66602 8.17714 2.73625 8.34671 2.86128 8.47173C2.9863 8.59675 3.15587 8.66699 3.33268 8.66699H7.33268V12.667C7.33268 12.8438 7.40292 13.0134 7.52794 13.1384C7.65297 13.2634 7.82254 13.3337 7.99935 13.3337C8.17616 13.3337 8.34573 13.2634 8.47075 13.1384C8.59578 13.0134 8.66602 12.8438 8.66602 12.667V8.66699H12.666C12.8428 8.66699 13.0124 8.59675 13.1374 8.47173C13.2624 8.34671 13.3327 8.17714 13.3327 8.00033C13.3327 7.82351 13.2624 7.65394 13.1374 7.52892C13.0124 7.4039 12.8428 7.33366 12.666 7.33366Z" fill="#FAFAFA" fill-opacity="0.8"/>
</svg>
