<svg width="15" height="13" viewBox="0 0 15 13" fill="none" xmlns="http://www.w3.org/2000/svg">
<path d="M7.18164 0.617188C7.54102 0.460938 7.9082 0.460938 8.2832 0.617188L13.3926 2.98438C13.5957 3.09375 13.7051 3.26562 13.7207 3.5C13.7051 3.73438 13.5957 3.90625 13.3926 4.01562L8.25977 6.38281C7.90039 6.53906 7.5332 6.53906 7.1582 6.38281L2.04883 4.01562C1.8457 3.90625 1.73633 3.73438 1.7207 3.5C1.73633 3.26562 1.8457 3.09375 2.04883 2.98438L7.18164 0.617188ZM12.1504 5.42188L13.3926 5.98438C13.5957 6.09375 13.7051 6.26562 13.7207 6.5C13.7051 6.73438 13.5957 6.90625 13.3926 7.01562L8.25977 9.38281C7.90039 9.53906 7.5332 9.53906 7.1582 9.38281L2.04883 7.01562C1.8457 6.90625 1.73633 6.73438 1.7207 6.5C1.73633 6.26562 1.8457 6.09375 2.04883 5.98438L3.29102 5.42188L6.85352 7.0625C7.43164 7.3125 8.00977 7.3125 8.58789 7.0625L12.1504 5.42188ZM8.58789 10.0625L12.1504 8.42188L13.3926 8.98438C13.5957 9.09375 13.7051 9.26562 13.7207 9.5C13.7051 9.73438 13.5957 9.90625 13.3926 10.0156L8.25977 12.3828C7.90039 12.5391 7.5332 12.5391 7.1582 12.3828L2.04883 10.0156C1.8457 9.90625 1.73633 9.73438 1.7207 9.5C1.73633 9.26562 1.8457 9.09375 2.04883 8.98438L3.29102 8.42188L6.85352 10.0625C7.43164 10.3125 8.00977 10.3125 8.58789 10.0625Z" fill="#5A5A5A"/>
</svg>
