<svg width="51" height="32" viewBox="0 0 51 32" fill="none" xmlns="http://www.w3.org/2000/svg">
<g clip-path="url(#clip0_63_17834)">
<rect x="0.480469" width="49.77" height="32" rx="6" fill="#096459" fill-opacity="0.1"/>
<g clip-path="url(#clip1_63_17834)">
<path d="M28.1568 13.718L28.1568 13.7175C28.1723 13.0951 28.7909 12.6675 29.6416 12.5669L29.6529 12.5656L29.6529 12.5658C30.5023 12.493 31.3577 12.5986 32.153 12.8729L32.4675 11.549C31.7708 11.3454 31.0417 11.2402 30.3065 11.2378C28.9951 11.2379 27.9078 11.553 27.1577 12.0646C26.4139 12.5719 26.0046 13.2664 25.9979 14.0676L25.9979 14.0693C25.9906 14.6269 26.261 15.0756 26.6884 15.4565C27.1211 15.8422 27.6877 16.1325 28.2026 16.3595C28.2027 16.3596 28.2028 16.3596 28.2029 16.3596L28.0595 16.6849C29.1347 17.1568 29.4952 17.4592 29.4911 17.8813L28.1568 13.718ZM28.1568 13.718C28.147 14.1326 28.4321 14.4164 28.7035 14.6079C28.9772 14.801 29.3438 14.9746 29.7024 15.1443L29.723 15.1541C30.2902 15.4226 30.8721 15.7007 31.3166 16.0848C31.7471 16.4568 32.0276 16.9099 32.0246 17.5407C32.0206 18.4141 31.6112 19.133 30.8604 19.6467C30.0992 20.1675 28.9774 20.4806 27.5754 20.4808C26.5427 20.4711 25.5554 20.3016 24.923 20.0991L25.2535 18.7037L28.1568 13.718ZM12.7372 11.0584H8.37927C8.83294 11.1569 9.30558 11.2781 9.74285 11.4139M12.7372 11.0584L11.3537 13.0025C11.22 12.5296 11.1042 12.3557 10.6982 12.1571M12.7372 11.0584C13.372 11.0575 13.9124 11.4745 14.0104 12.04L12.7372 11.0584ZM9.74285 11.4139H8.34093C9.20555 11.6036 10.1174 11.8724 10.6982 12.1571M9.74285 11.4139L12.7372 11.4139L12.7377 11.4139C13.2261 11.4132 13.596 11.7308 13.6601 12.1007L13.6599 12.1007L13.6624 12.1126L14.8248 17.6835L15.0519 18.7719L15.4983 17.7536L18.2782 11.4139H20.3884L16.2459 20.3301H13.8228M9.74285 11.4139C10.1618 11.5441 10.5484 11.6877 10.8546 11.8378C10.8546 11.8378 10.8545 11.8378 10.8545 11.8378L10.6982 12.1571M10.6982 12.1571L13.8228 20.3301M13.8228 20.3301L11.6958 12.9058C11.6957 12.9056 11.6957 12.9054 11.6956 12.9052C11.6268 12.6617 11.5502 12.4456 11.4116 12.2625C11.2676 12.0721 11.0814 11.9488 10.8547 11.8379L13.8228 20.3301ZM32.7934 20.3301L36.701 11.9142L36.701 11.9143L36.7026 11.9108C36.8324 11.6231 37.16 11.4108 37.5509 11.4139H37.5538H39.6274L41.6914 20.3301H39.868L39.5984 19.1672L39.5346 18.892H39.2521H35.7104H35.4698L35.3804 19.1153L34.8938 20.3301H32.7934ZM36.1752 17.1419L35.979 17.63H36.5051H38.7949H39.2421L39.1412 17.1943L38.3047 13.5795L38.0499 12.4788L37.6285 13.5271L36.1752 17.1419ZM20.2964 20.3301L22.4114 11.4139H24.4408L22.3267 20.3301H20.2964Z" fill="white" stroke="white" stroke-width="0.711"/>
</g>
</g>
<defs>
<clipPath id="clip0_63_17834">
<rect x="0.480469" width="49.77" height="32" rx="6" fill="white"/>
</clipPath>
<clipPath id="clip1_63_17834">
<rect width="49.77" height="32" fill="white" transform="translate(0.480469)"/>
</clipPath>
</defs>
</svg>
