<svg width="51" height="33" viewBox="0 0 51 33" fill="none" xmlns="http://www.w3.org/2000/svg">
<g clip-path="url(#clip0_63_17034)">
<rect x="0.480469" y="0.589844" width="49.77" height="32" rx="6" fill="#096459" fill-opacity="0.1"/>
<g clip-path="url(#clip1_63_17034)">
<path d="M28.1568 14.3083L28.1568 14.3078C28.1723 13.6855 28.7909 13.2578 29.6416 13.1573L29.6529 13.1559L29.6529 13.1561C30.5023 13.0833 31.3577 13.189 32.153 13.4632L32.4675 12.1393C31.7708 11.9357 31.0417 11.8306 30.3065 11.8282C28.9951 11.8282 27.9078 12.1434 27.1577 12.6549C26.4139 13.1622 26.0046 13.8567 25.9979 14.6579L25.9979 14.6596C25.9906 15.2172 26.261 15.6659 26.6884 16.0469C27.1211 16.4326 27.6877 16.7229 28.2026 16.9499C28.2027 16.9499 28.2028 16.9499 28.2029 16.95L28.0595 17.2753C29.1347 17.7471 29.4952 18.0495 29.4911 18.4716L28.1568 14.3083ZM28.1568 14.3083C28.147 14.7229 28.4321 15.0067 28.7035 15.1982C28.9772 15.3914 29.3438 15.5649 29.7024 15.7347L29.723 15.7444C30.2902 16.013 30.8721 16.291 31.3166 16.6751C31.7471 17.0471 32.0276 17.5003 32.0246 18.131C32.0206 19.0044 31.6112 19.7233 30.8604 20.237C30.0992 20.7578 28.9774 21.0709 27.5754 21.0712C26.5427 21.0615 25.5554 20.8919 24.923 20.6894L25.2535 19.2941L28.1568 14.3083ZM12.7372 11.6488H8.37927C8.83294 11.7473 9.30558 11.8684 9.74285 12.0043M12.7372 11.6488L11.3537 13.5929C11.22 13.12 11.1042 12.9461 10.6982 12.7474M12.7372 11.6488C13.372 11.6478 13.9124 12.0648 14.0104 12.6303L12.7372 11.6488ZM9.74285 12.0043H8.34093C9.20555 12.194 10.1174 12.4628 10.6982 12.7474M9.74285 12.0043L12.7372 12.0043L12.7377 12.0043C13.2261 12.0036 13.596 12.3211 13.6601 12.691L13.6599 12.691L13.6624 12.7029L14.8248 18.2738L15.0519 19.3622L15.4983 18.344L18.2782 12.0043H20.3884L16.2459 20.9204H13.8228M9.74285 12.0043C10.1618 12.1344 10.5484 12.2781 10.8546 12.4281C10.8546 12.4281 10.8545 12.4281 10.8545 12.4281L10.6982 12.7474M10.6982 12.7474L13.8228 20.9204M13.8228 20.9204L11.6958 13.4962C11.6957 13.496 11.6957 13.4958 11.6956 13.4956C11.6268 13.252 11.5502 13.036 11.4116 12.8528C11.2676 12.6625 11.0814 12.5391 10.8547 12.4282L13.8228 20.9204ZM32.7934 20.9204L36.701 12.5046L36.701 12.5046L36.7026 12.5011C36.8324 12.2134 37.16 12.0011 37.5509 12.0043H37.5538H39.6274L41.6914 20.9204H39.868L39.5984 19.7575L39.5346 19.4823H39.2521H35.7104H35.4698L35.3804 19.7056L34.8938 20.9204H32.7934ZM36.1752 17.7322L35.979 18.2203H36.5051H38.7949H39.2421L39.1412 17.7847L38.3047 14.1699L38.0499 13.0691L37.6285 14.1174L36.1752 17.7322ZM20.2964 20.9204L22.4114 12.0043H24.4408L22.3267 20.9204H20.2964Z" fill="white" stroke="white" stroke-width="0.711"/>
</g>
</g>
<defs>
<clipPath id="clip0_63_17034">
<rect x="0.480469" y="0.589844" width="49.77" height="32" rx="6" fill="white"/>
</clipPath>
<clipPath id="clip1_63_17034">
<rect width="49.77" height="32" fill="white" transform="translate(0.480469 0.589844)"/>
</clipPath>
</defs>
</svg>
