<svg width="125" height="81" viewBox="0 0 125 81" fill="none" xmlns="http://www.w3.org/2000/svg">
<g opacity="0.5" clip-path="url(#clip0_29_249820)">
<g clip-path="url(#clip1_29_249820)">
<path d="M71.474 23.5176H52.9668V56.8469H71.474V23.5176Z" fill="#FF5F00"/>
<path d="M54.1415 40.1808C54.1386 36.9709 54.8645 33.8025 56.2641 30.9153C57.6637 28.0282 59.7004 25.4979 62.2201 23.5161C59.0999 21.0585 55.3524 19.53 51.4065 19.1055C47.4603 18.6809 43.4747 19.3778 39.905 21.116C36.3354 22.8543 33.3259 25.5639 31.2202 28.9351C29.1146 32.3066 27.998 36.2035 27.998 40.1808C27.998 44.1581 29.1146 48.055 31.2202 51.4263C33.3259 54.7977 36.3354 57.5073 39.905 59.2455C43.4747 60.9838 47.4603 61.6805 51.4065 61.2561C55.3524 60.8316 59.0999 59.3031 62.2201 56.8454C59.7004 54.8636 57.6637 52.3334 56.2641 49.4462C54.8645 46.5591 54.1386 43.3906 54.1415 40.1808Z" fill="#EB001B"/>
<path d="M96.4417 40.1808C96.4419 44.1579 95.3253 48.055 93.2199 51.4263C91.1144 54.7977 88.1049 57.5073 84.5353 59.2455C80.9658 60.9838 76.9802 61.6805 73.0342 61.2561C69.0882 60.8316 65.3408 59.3031 62.2207 56.8454C64.7381 54.8617 66.7732 52.3309 68.1727 49.4443C69.5721 46.5576 70.2992 43.3901 70.2992 40.1808C70.2992 36.9715 69.5721 33.804 68.1727 30.9173C66.7732 28.0306 64.7381 25.4999 62.2207 23.5161C65.3408 21.0583 69.0882 19.5298 73.0342 19.1055C76.9802 18.6809 80.9658 19.3778 84.5353 21.116C88.1049 22.8543 91.1144 25.5639 93.2199 28.9353C95.3253 32.3066 96.4419 36.2037 96.4417 40.1808Z" fill="#F79E1B"/>
<path d="M94.4227 53.3188V52.6365H94.6974V52.4975H93.998V52.6365H94.2727V53.3188H94.4227ZM95.7802 53.3188V52.4961H95.566L95.3194 53.0621L95.0729 52.4961H94.8585V53.3188H95.0097V52.6982L95.2408 53.2333H95.3978L95.6291 52.697V53.3188H95.7802Z" fill="#F79E1B"/>
</g>
</g>
<defs>
<clipPath id="clip0_29_249820">
<rect width="124.44" height="80" fill="white" transform="translate(0 0.179688)"/>
</clipPath>
<clipPath id="clip1_29_249820">
<rect width="124.44" height="80" fill="white" transform="translate(0 0.179688)"/>
</clipPath>
</defs>
</svg>
