<svg width="101" height="65" viewBox="0 0 101 65" fill="none" xmlns="http://www.w3.org/2000/svg">
<g opacity="0.5" clip-path="url(#clip0_29_249827)">
<g clip-path="url(#clip1_29_249827)">
<path fill-rule="evenodd" clip-rule="evenodd" d="M64.4917 26.2011C65.9558 26.2011 67.1424 24.9775 67.1424 23.4687C67.1424 21.959 65.9558 20.7344 64.4917 20.7344C63.0293 20.7344 61.8432 21.959 61.8432 23.4687C61.8432 24.9775 63.0293 26.2011 64.4917 26.2011ZM44.1906 27.6767C44.0709 27.9866 43.21 30.4951 41.128 33.0949V21.9785L35.5805 23.1095V43.2594H41.128V37.031C42.7347 39.5168 43.5282 43.2594 43.5282 43.2594H50.173C49.5157 40.4407 46.6405 35.2434 46.6405 35.2434C49.2209 31.8685 50.3543 28.2724 50.5346 27.6767H44.1906ZM58.7747 27.4664C53.8058 27.6309 51.2835 29.9305 51.2835 34.5019V43.2594H56.7043V36.1178C56.7043 33.3805 57.0517 32.2072 60.2006 32.0953V27.5466C59.6706 27.4305 58.7747 27.4664 58.7747 27.4664ZM26.2767 29.8955C25.5972 29.8495 24.024 29.7445 24.024 28.2837C24.024 26.5206 26.2889 26.5206 27.1384 26.5206C28.6321 26.5206 30.5666 26.976 31.9481 27.4024C31.9481 27.4024 32.7187 27.6825 33.3746 27.9695L33.4355 27.9866V23.1586L33.3517 23.133C31.7214 22.5445 29.8257 21.9785 26.3108 21.9785C20.2507 21.9785 18.1035 25.6203 18.1035 28.7402C18.1035 30.5386 18.8507 34.7712 25.7912 35.2594C26.3795 35.2968 27.9409 35.3897 27.9409 36.8993C27.9409 38.1458 26.6625 38.8808 24.5124 38.8808C22.1562 38.8808 19.8705 38.261 18.4822 37.6731V42.6458C20.5606 43.2078 22.9034 43.4887 25.6493 43.4887C31.5748 43.4887 34.2286 40.043 34.2286 36.6278C34.2286 32.7557 31.2589 30.2398 26.2767 29.8955ZM61.8045 43.2594H67.1814V27.6943H61.8045V43.2594ZM77.3059 22.9708V43.2594H82.6837V21.9785L77.3059 22.9708ZM69.4591 22.9708L74.8318 21.9785V43.2594H69.4591V22.9708Z" fill="white"/>
</g>
</g>
<defs>
<clipPath id="clip0_29_249827">
<rect width="99.55" height="64" fill="white" transform="translate(0.919922 0.179688)"/>
</clipPath>
<clipPath id="clip1_29_249827">
<rect width="99.55" height="64" fill="white" transform="translate(0.919922 0.179688)"/>
</clipPath>
</defs>
</svg>
