<svg width="44" height="33" viewBox="0 0 44 33" fill="none" xmlns="http://www.w3.org/2000/svg">
<g clip-path="url(#clip0_63_17067)">
<rect x="0.560547" y="0.589844" width="42.66" height="32" rx="6" fill="#096459" fill-opacity="0.1"/>
<g clip-path="url(#clip1_63_17067)">
<path d="M27.5468 12.418C27.5325 12.5133 27.5161 12.6108 27.4977 12.711C26.8644 16.0941 24.698 17.2628 21.9311 17.2628H20.5222C20.1839 17.2628 19.8987 17.5185 19.846 17.8658L19.1247 22.626L18.9205 23.9753C18.8862 24.2033 19.0551 24.4089 19.2762 24.4089H21.7749C22.0708 24.4089 22.3222 24.1852 22.3687 23.8816L22.3933 23.7495L22.8638 20.6428L22.894 20.4723C22.9401 20.1676 23.1919 19.9439 23.4878 19.9439H23.8615C26.2824 19.9439 28.1775 18.9211 28.7314 15.9615C28.9628 14.7251 28.843 13.6927 28.2307 12.9666C28.0454 12.7477 27.8156 12.5661 27.5468 12.418Z" fill="#99C6E5"/>
<path d="M26.8841 12.1428C26.7873 12.1135 26.6875 12.0868 26.5851 12.0629C26.4822 12.0394 26.3768 12.0186 26.2682 12.0005C25.8884 11.9366 25.4722 11.9062 25.0263 11.9062H21.2627C21.17 11.9062 21.082 11.9281 21.0032 11.9675C20.8296 12.0543 20.7006 12.2253 20.6694 12.4347L19.8687 17.7116L19.8457 17.8655C19.8984 17.5182 20.1836 17.2625 20.5219 17.2625H21.9308C24.6977 17.2625 26.8641 16.0932 27.4974 12.7106C27.5163 12.6105 27.5322 12.513 27.5465 12.4176C27.3863 12.3292 27.2127 12.2536 27.0259 12.1891C26.9798 12.1731 26.9322 12.1577 26.8841 12.1428Z" fill="#CCE2F2"/>
<path d="M26.9487 11.4686C26.9299 10.8415 26.7396 10.3945 26.3865 9.97553L26.9487 11.4686ZM26.9487 11.4686C26.879 11.4495 26.8085 11.4316 26.7374 11.4149L26.7374 11.4149L26.7335 11.414C26.6176 11.3876 26.4995 11.3644 26.3787 11.3442C25.9555 11.273 25.5016 11.2407 25.0266 11.2407H21.263C21.0634 11.2407 20.8747 11.2882 20.7068 11.3716L20.7066 11.3717C20.3375 11.5553 20.074 11.9125 20.0105 12.3359C20.0105 12.3362 20.0104 12.3365 20.0104 12.3368L19.21 17.6121L19.21 17.6123L18.5515 21.9596H16.4531L18.4123 9.03744L18.4124 9.03648C18.4151 9.01832 18.4228 9.00822 18.4281 9.00348C18.4301 9.00176 18.4315 9.00091 18.4322 9.00055H23.2333C24.832 9.00055 25.866 9.35907 26.3864 9.97543L26.9487 11.4686Z" fill="white" stroke="white" stroke-width="1.33312"/>
</g>
</g>
<defs>
<clipPath id="clip0_63_17067">
<rect x="0.560547" y="0.589844" width="42.66" height="32" rx="6" fill="white"/>
</clipPath>
<clipPath id="clip1_63_17067">
<rect width="42.66" height="32" fill="white" transform="translate(0.560547 0.589844)"/>
</clipPath>
</defs>
</svg>
