<svg width="100" height="65" viewBox="0 0 100 65" fill="none" xmlns="http://www.w3.org/2000/svg">
<g opacity="0.5" clip-path="url(#clip0_29_249831)">
<g clip-path="url(#clip1_29_249831)">
<path d="M30.9022 51.21H50.2254C63.8034 51.21 71.2964 44.4369 71.2964 32.1472C71.2964 25.0639 68.5614 13.166 50.2254 13.166H30.9022C29.1868 13.166 27.7949 14.5696 27.7949 16.2997V48.0764C27.7949 49.8063 29.1868 51.21 30.9022 51.21Z" fill="white"/>
<path d="M39.6426 19.3683V47.0812H51.6022C62.4614 47.0812 67.1709 40.8955 67.1709 32.1477C67.1709 23.7749 62.4614 17.2793 51.6022 17.2793H41.7141C40.565 17.2793 39.6426 18.2259 39.6426 19.3683Z" fill="#CC0066"/>
<path d="M43.8486 28.4089C44.2694 28.4089 44.6578 28.4742 45.0301 28.6048C45.4023 28.7353 45.7098 28.9475 45.9849 29.2086C46.2438 29.4861 46.4543 29.8288 46.6161 30.2205C46.7617 30.6286 46.8426 31.1019 46.8426 31.6568C46.8426 32.1463 46.7779 32.587 46.6646 32.9951C46.5352 33.4031 46.3571 33.7622 46.1144 34.056C45.8716 34.3496 45.5641 34.5782 45.192 34.7577C44.8196 34.9209 44.3828 35.0189 43.881 35.0189H41.0488V28.3926H43.8486V28.4089ZM43.7516 33.8111C43.9619 33.8111 44.1562 33.7785 44.3665 33.7132C44.5607 33.648 44.7387 33.5336 44.8843 33.3705C45.0301 33.2072 45.1595 33.0114 45.2567 32.7503C45.3538 32.4891 45.4023 32.1954 45.4023 31.8199C45.4023 31.4936 45.3699 31.1834 45.3052 30.9223C45.2405 30.6612 45.1271 30.4164 44.9815 30.2368C44.8359 30.0573 44.6416 29.8941 44.399 29.7962C44.1562 29.6982 43.8648 29.6493 43.5089 29.6493H42.4731V33.8274H43.7516V33.8111Z" fill="white"/>
<path d="M52.6849 28.4089V29.633H49.2216V31.0528H52.4098V32.179H49.2216V33.7947H52.7659V35.0189H47.7812V28.3926H52.6849V28.4089Z" fill="white"/>
<path d="M57.6375 28.4102L60.0974 35.0365H58.5924L58.0906 33.5676H55.6307L55.1128 35.0365H53.6562L56.1323 28.4102H57.6375ZM57.7183 32.4741L56.893 30.0423H56.8768L56.0191 32.4741H57.7183Z" fill="white"/>
<path d="M62.4443 28.4102V33.8125H65.6486V35.0365H61.0039V28.4102H62.4443Z" fill="white"/>
<path d="M34.2353 34.7739C35.9067 34.7739 37.2616 33.4075 37.2616 31.722C37.2616 30.0363 35.9067 28.6699 34.2353 28.6699C32.5639 28.6699 31.209 30.0363 31.209 31.722C31.209 33.4075 32.5639 34.7739 34.2353 34.7739Z" fill="black"/>
<path d="M36.5174 47.0804C33.9766 47.0804 31.9375 45.0077 31.9375 42.4616V38.8548C31.9375 37.5817 32.957 36.5371 34.2355 36.5371C35.4978 36.5371 36.5336 37.5655 36.5336 38.8548V47.0804H36.5174Z" fill="black"/>
</g>
</g>
<defs>
<clipPath id="clip0_29_249831">
<rect width="99.55" height="64" fill="white" transform="translate(0 0.179688)"/>
</clipPath>
<clipPath id="clip1_29_249831">
<rect width="99.55" height="64" fill="white" transform="translate(0 0.179688)"/>
</clipPath>
</defs>
</svg>
