<svg width="51" height="33" viewBox="0 0 51 33" fill="none" xmlns="http://www.w3.org/2000/svg">
<g clip-path="url(#clip0_63_17055)">
<rect x="0.791016" y="0.589844" width="49.77" height="32" rx="6" fill="#096459" fill-opacity="0.1"/>
<g clip-path="url(#clip1_63_17055)">
<path d="M25.9016 25.7486H16.241C15.5825 25.7486 15.043 25.2088 15.043 24.5374V8.65065C15.043 7.97922 15.5825 7.43948 16.241 7.43948H25.9016C30.4019 7.43948 32.9195 8.89483 34.3249 10.7179C35.7439 12.5585 36.0806 14.8388 36.0806 16.5736C36.0806 19.5718 35.1689 21.848 33.476 23.3793C31.7774 24.9156 29.2411 25.7486 25.9016 25.7486Z" fill="white" stroke="white" stroke-width="0.711"/>
<path d="M20.6094 10.185V24.0401H26.5886C32.0177 24.0401 34.3721 20.9476 34.3721 16.5741C34.3721 12.3881 32.0177 9.14062 26.5886 9.14062H21.645C21.0705 9.14062 20.6094 9.61387 20.6094 10.185Z" fill="#CC0066"/>
<path d="M21.67 15.0528H21.671V15.3256V17.4144V17.6546H21.67V15.0528ZM23.8556 16.3292C23.8556 16.435 23.8486 16.5348 23.8358 16.6296C23.843 16.5597 23.8465 16.487 23.8465 16.4108C23.8465 16.2262 23.8283 16.0414 23.7875 15.8765C23.7454 15.7067 23.669 15.5339 23.5567 15.3954L23.5566 15.3953C23.536 15.3699 23.5138 15.3446 23.4899 15.3199C23.5031 15.3313 23.5163 15.3432 23.5295 15.3555C23.6204 15.4551 23.7006 15.583 23.7659 15.7387C23.8215 15.8978 23.8556 16.0908 23.8556 16.3292Z" fill="white" stroke="white" stroke-width="0.711"/>
<path d="M25.0443 17.3981V17.6546H25.0352V15.0528H25.0443V15.3174V16.0273V16.2348V16.3828V16.5903V17.3981Z" fill="white" stroke="white" stroke-width="0.711"/>
<path d="M29.3604 15.0606L29.3994 15.1656H29.2354H29.2273H29.0625L29.1018 15.0606H29.3604Z" fill="white" stroke="white" stroke-width="0.711"/>
<path d="M31.6537 17.406V17.6624H31.6446V15.0606H31.6537V17.406Z" fill="white" stroke="white" stroke-width="0.711"/>
<path d="M17.9075 17.8876C18.7432 17.8876 19.4205 17.2045 19.4205 16.3618C19.4205 15.5191 18.7432 14.8359 17.9075 14.8359C17.0719 14.8359 16.3945 15.5191 16.3945 16.3618C16.3945 17.2045 17.0719 17.8876 17.9075 17.8876Z" fill="black"/>
<path d="M19.0475 24.0397C17.7772 24.0397 16.7578 23.0034 16.7578 21.7305V19.9273C16.7578 19.2908 17.2675 18.7686 17.9067 18.7686C18.5378 18.7686 19.0556 19.2827 19.0556 19.9273V24.0397H19.0475Z" fill="black"/>
</g>
</g>
<defs>
<clipPath id="clip0_63_17055">
<rect x="0.791016" y="0.589844" width="49.77" height="32" rx="6" fill="white"/>
</clipPath>
<clipPath id="clip1_63_17055">
<rect width="49.77" height="32" fill="white" transform="translate(0.791016 0.589844)"/>
</clipPath>
</defs>
</svg>
