<svg width="175" height="113" viewBox="0 0 175 113" fill="none" xmlns="http://www.w3.org/2000/svg">
<g opacity="0.5" clip-path="url(#clip0_29_249816)">
<g clip-path="url(#clip1_29_249816)">
<path fill-rule="evenodd" clip-rule="evenodd" d="M111.918 61.579C111.943 56.2581 107.058 53.9449 103.149 52.0942C100.525 50.8515 98.3406 49.8172 98.3782 48.2211C98.4083 47.0125 99.6849 45.7285 102.478 45.3984C105.745 45.1184 109.037 45.6396 112.004 46.9059L113.702 39.7609C110.812 38.7811 107.75 38.2756 104.661 38.2656C95.1103 38.2656 88.3869 42.8469 88.3327 49.4053C88.269 54.2598 93.1312 56.9634 96.7936 58.5777C100.557 60.2293 101.819 61.2881 101.805 62.7654C101.778 65.0283 98.8031 66.0246 96.0225 66.0647C91.3089 66.1304 88.5139 64.9531 86.3 64.0206L86.0972 63.9352L84.3478 71.3201C86.6039 72.2545 90.7705 73.0698 95.0934 73.1096C105.246 73.1096 111.885 68.5874 111.918 61.579ZM71.8913 38.8821L56.2341 72.582H46.0201L38.3149 45.6874C37.847 44.0321 37.4415 43.4233 36.0204 42.7279C33.697 41.5892 29.8602 40.523 26.4863 39.8597L26.7138 38.8821H43.1577C45.38 38.8789 47.2715 40.3386 47.6145 42.318L51.6835 61.8189L61.741 38.8821H71.8913ZM146.077 72.582H137.14L135.973 67.5478H123.575L121.559 72.582H111.415L125.914 41.3538C126.594 39.8475 128.225 38.8677 130.028 38.8821H138.276L146.077 72.582ZM126.357 60.6414L131.444 47.9878L134.373 60.6414H126.357ZM77.7098 72.582L85.7002 38.8821H76.0385L68.0445 72.582H77.7098Z" fill="white"/>
</g>
</g>
<defs>
<clipPath id="clip0_29_249816">
<rect width="174.22" height="112" fill="white" transform="translate(0.25 0.179688)"/>
</clipPath>
<clipPath id="clip1_29_249816">
<rect width="174.22" height="112" fill="white" transform="translate(0.25 0.179688)"/>
</clipPath>
</defs>
</svg>
