<svg width="20" height="20" viewBox="0 0 20 20" fill="none" xmlns="http://www.w3.org/2000/svg">
<path d="M9.98272 0C4.73189 0 0.426055 4.05 0.0185547 9.1975L5.37855 11.4125C5.83272 11.1033 6.38105 10.9208 6.97189 10.9208C7.02439 10.9208 7.07605 10.9242 7.12855 10.9258L9.51272 7.47417V7.425C9.51272 5.34583 11.2027 3.655 13.2827 3.655C15.3611 3.655 17.0527 5.3475 17.0527 7.4275C17.0527 9.5075 15.3611 11.1983 13.2827 11.1983H13.1952L9.79855 13.6242C9.79855 13.6675 9.80189 13.7117 9.80189 13.7567C9.80189 15.3192 8.53939 16.5867 6.97689 16.5867C5.61439 16.5867 4.46355 15.6092 4.20105 14.3142L0.363555 12.725C1.55189 16.9225 5.40522 20 9.98272 20C15.5052 20 19.9819 15.5225 19.9819 10C19.9819 4.4775 15.5044 0 9.98272 0ZM6.28355 15.175L5.05605 14.6667C5.27439 15.1192 5.65105 15.4992 6.15105 15.7083C7.23189 16.1575 8.47855 15.645 8.92772 14.5625C9.14689 14.0375 9.14772 13.4633 8.93189 12.9383C8.71605 12.4133 8.30689 12.0042 7.78439 11.7858C7.26439 11.5692 6.70939 11.5783 6.21939 11.7608L7.48855 12.2858C8.28522 12.6192 8.66272 13.5358 8.32939 14.3317C7.99855 15.1292 7.08105 15.5067 6.28355 15.175ZM15.7961 7.4225C15.7961 6.0375 14.6686 4.91 13.2836 4.91C11.8961 4.91 10.7711 6.0375 10.7711 7.4225C10.7711 8.81 11.8961 9.935 13.2836 9.935C14.6694 9.935 15.7961 8.81 15.7961 7.4225ZM11.4019 7.41833C11.4019 6.375 12.2461 5.53 13.2894 5.53C14.3302 5.53 15.1777 6.375 15.1777 7.41833C15.1777 8.46083 14.3302 9.30583 13.2894 9.30583C12.2452 9.30583 11.4019 8.46083 11.4019 7.41833Z" fill="black"/>
</svg>
