<svg width="20" height="20" viewBox="0 0 20 20" fill="none" xmlns="http://www.w3.org/2000/svg">
<path d="M9.98174 0C4.73091 0 0.425078 4.05 0.0175781 9.1975L5.37758 11.4125C5.83174 11.1033 6.38008 10.9208 6.97091 10.9208C7.02341 10.9208 7.07508 10.9242 7.12758 10.9258L9.51174 7.47417V7.425C9.51174 5.34583 11.2017 3.655 13.2817 3.655C15.3601 3.655 17.0517 5.3475 17.0517 7.4275C17.0517 9.5075 15.3601 11.1983 13.2817 11.1983H13.1942L9.79758 13.6242C9.79758 13.6675 9.80091 13.7117 9.80091 13.7567C9.80091 15.3192 8.53841 16.5867 6.97591 16.5867C5.61341 16.5867 4.46258 15.6092 4.20008 14.3142L0.362578 12.725C1.55091 16.9225 5.40424 20 9.98174 20C15.5042 20 19.9809 15.5225 19.9809 10C19.9809 4.4775 15.5034 0 9.98174 0ZM6.28258 15.175L5.05508 14.6667C5.27341 15.1192 5.65008 15.4992 6.15008 15.7083C7.23091 16.1575 8.47758 15.645 8.92674 14.5625C9.14591 14.0375 9.14674 13.4633 8.93091 12.9383C8.71508 12.4133 8.30591 12.0042 7.78341 11.7858C7.26341 11.5692 6.70841 11.5783 6.21841 11.7608L7.48758 12.2858C8.28424 12.6192 8.66174 13.5358 8.32841 14.3317C7.99758 15.1292 7.08008 15.5067 6.28258 15.175ZM15.7951 7.4225C15.7951 6.0375 14.6676 4.91 13.2826 4.91C11.8951 4.91 10.7701 6.0375 10.7701 7.4225C10.7701 8.81 11.8951 9.935 13.2826 9.935C14.6684 9.935 15.7951 8.81 15.7951 7.4225ZM11.4009 7.41833C11.4009 6.375 12.2451 5.53 13.2884 5.53C14.3292 5.53 15.1767 6.375 15.1767 7.41833C15.1767 8.46083 14.3292 9.30583 13.2884 9.30583C12.2442 9.30583 11.4009 8.46083 11.4009 7.41833Z" fill="black"/>
</svg>
