<svg width="42" height="42" viewBox="0 0 42 42" fill="none" xmlns="http://www.w3.org/2000/svg">
<g clip-path="url(#clip0_2011_212)">
<path d="M12.224 7.14311C12.2116 7.0936 12.4963 6.90793 12.8553 6.72225L13.5113 6.41279L14.155 7.60111C14.514 8.25716 15.6033 10.3243 16.5811 12.1934C17.559 14.0626 18.7102 16.2907 19.1558 17.1448C19.8861 18.5559 19.948 18.7415 19.9109 19.3233C19.8738 19.7442 19.7624 20.0784 19.5395 20.3755C19.3662 20.6107 19.0197 20.8954 18.7721 21.0068C18.3512 21.2172 17.7323 21.2296 4.57422 21.2296V19.7442H11.2832C17.4724 19.7442 18.017 19.7194 18.2274 19.5214C18.3512 19.41 18.4503 19.2614 18.4379 19.1872C18.4379 19.1129 18.3017 18.8158 18.1408 18.5064C17.9799 18.1969 17.101 16.5011 16.1727 14.731C15.2567 12.9609 13.9941 10.5471 13.3752 9.3712C12.7563 8.20764 12.2364 7.19263 12.224 7.14311Z" fill="#0C0C0C"/>
<path d="M25.4316 12.4286C26.2238 10.9061 27.276 8.9132 27.7587 7.99721L28.6252 6.36328L29.2565 6.72225C29.6031 6.9203 29.8754 7.13073 29.863 7.19263C29.8506 7.25452 29.046 8.82656 28.0558 10.6957L27.9268 10.9439C26.9654 12.7938 25.7379 15.1555 25.1221 16.3278C24.4908 17.5532 23.9214 18.6178 23.8596 18.6797C23.81 18.7539 23.7605 18.9644 23.7605 19.15C23.7605 19.3605 23.8472 19.5338 24.0081 19.608C24.169 19.6947 26.7313 19.7318 37.6242 19.7318V21.2172H30.6924C24.986 21.2172 23.6986 21.1924 23.4263 21.0439C23.2283 20.9573 22.9559 20.7468 22.8074 20.5859C22.6589 20.425 22.4484 20.0784 22.3494 19.8308C22.238 19.5709 22.1514 19.2243 22.1514 19.051C22.1514 18.8901 22.5598 17.9493 23.0673 16.9838C23.5625 16.006 24.627 13.9635 25.4316 12.4286Z" fill="#0C0C0C"/>
<path d="M19.8614 22.9006C20.0718 22.7521 20.4308 22.6036 20.666 22.5664C20.9135 22.5169 21.2477 22.5045 21.4087 22.5417C21.582 22.5788 21.8667 22.6778 22.0276 22.7645C22.2009 22.8511 22.4608 23.0492 22.597 23.2101C22.7455 23.371 23.253 24.1385 23.7358 24.9183C24.2185 25.7105 25.0355 27.0721 25.5678 27.951C26.0876 28.8422 27.2388 30.7361 28.1053 32.1596C28.9842 33.5955 29.7021 34.8085 29.7021 34.8581C29.7021 34.9076 29.4298 35.118 28.4643 35.6874L28.2291 35.2913C28.0929 35.0685 26.5085 32.469 24.726 29.4983C21.9781 24.9554 21.421 24.1137 21.1611 24.0766C20.9878 24.0642 20.7774 24.1385 20.6536 24.2623C20.5422 24.386 18.9825 26.9112 17.2 29.8696C15.4176 32.8404 13.8951 35.3532 13.8208 35.4646C13.6846 35.6503 13.6227 35.6379 12.3725 34.8828L12.7191 34.3258C12.9172 34.0287 14.514 31.3798 16.2841 28.4709C18.4503 24.8935 19.6138 23.0739 19.8614 22.9006Z" fill="#0C0C0C"/>
</g>
<defs>
<clipPath id="clip0_2011_212">
<rect width="41.6938" height="41.6938" fill="white"/>
</clipPath>
</defs>
</svg>
