<svg width="16" height="16" viewBox="0 0 16 16" fill="none" xmlns="http://www.w3.org/2000/svg">
<path d="M1.33301 1.33398H2.49301C3.21301 1.33398 3.77968 1.95398 3.71968 2.66732L3.16634 9.30731C3.07301 10.394 3.933 11.3273 5.02634 11.3273H12.1263C13.0863 11.3273 13.9263 10.5407 13.9997 9.58732L14.3597 4.58732C14.4397 3.48065 13.5997 2.58065 12.4863 2.58065H3.87968" stroke="#FAFAFA" stroke-width="1.5" stroke-miterlimit="10" stroke-linecap="round" stroke-linejoin="round"/>
<path d="M10.8333 14.6667C11.2936 14.6667 11.6667 14.2936 11.6667 13.8333C11.6667 13.3731 11.2936 13 10.8333 13C10.3731 13 10 13.3731 10 13.8333C10 14.2936 10.3731 14.6667 10.8333 14.6667Z" stroke="#FAFAFA" stroke-width="1.5" stroke-miterlimit="10" stroke-linecap="round" stroke-linejoin="round"/>
<path d="M5.50033 14.6667C5.96056 14.6667 6.33366 14.2936 6.33366 13.8333C6.33366 13.3731 5.96056 13 5.50033 13C5.04009 13 4.66699 13.3731 4.66699 13.8333C4.66699 14.2936 5.04009 14.6667 5.50033 14.6667Z" stroke="#FAFAFA" stroke-width="1.5" stroke-miterlimit="10" stroke-linecap="round" stroke-linejoin="round"/>
<path d="M6 5.33398H14" stroke="#FAFAFA" stroke-width="1.5" stroke-miterlimit="10" stroke-linecap="round" stroke-linejoin="round"/>
</svg>
