<svg width="66" height="16" viewBox="0 0 66 16" fill="none" xmlns="http://www.w3.org/2000/svg">
<path d="M17.1209 5.66992H23.7176V6.90069H21.1238V13.8195H19.6975V6.90069H17.1152V5.66992H17.1209ZM23.4358 7.91866H24.6551V9.05741H24.6781C24.7183 8.89637 24.7931 8.74109 24.9024 8.59155C25.0116 8.44202 25.1439 8.29824 25.2992 8.17746C25.4545 8.05094 25.627 7.95316 25.8168 7.87265C26.0066 7.79788 26.2021 7.75762 26.3977 7.75762C26.5472 7.75762 26.6565 7.76337 26.714 7.76913C26.7715 7.77488 26.829 7.78638 26.8923 7.79213V9.0459C26.8003 9.02865 26.7083 9.01715 26.6105 9.00565C26.5127 8.99414 26.4207 8.98839 26.3287 8.98839C26.1101 8.98839 25.9031 9.0344 25.7075 9.12067C25.512 9.20694 25.3452 9.33922 25.2014 9.50601C25.0576 9.67854 24.9426 9.88559 24.8563 10.1387C24.7701 10.3917 24.7298 10.6793 24.7298 11.0071V13.8137H23.43V7.91866H23.4358ZM32.8678 13.8195H31.5911V12.997H31.5681C31.407 13.2961 31.1712 13.5319 30.8549 13.7102C30.5386 13.8885 30.2165 13.9805 29.8887 13.9805C29.1123 13.9805 28.5487 13.7907 28.2036 13.4054C27.8585 13.0201 27.686 12.4392 27.686 11.6628V7.91866H28.9857V11.5362C28.9857 12.0538 29.0835 12.4219 29.2848 12.6347C29.4804 12.8475 29.7622 12.9568 30.1187 12.9568C30.3948 12.9568 30.6191 12.9165 30.8031 12.8303C30.9872 12.744 31.1367 12.6347 31.246 12.4909C31.361 12.3529 31.4415 12.1804 31.4933 11.9848C31.5451 11.7893 31.5681 11.5765 31.5681 11.3464V7.92441H32.8678V13.8195ZM35.0821 11.9273C35.1223 12.3069 35.2661 12.5715 35.5134 12.7267C35.7665 12.8763 36.0655 12.9568 36.4164 12.9568C36.5372 12.9568 36.6752 12.9453 36.8305 12.928C36.9857 12.9108 37.1353 12.8705 37.2676 12.8188C37.4056 12.767 37.5149 12.6865 37.6069 12.583C37.6932 12.4794 37.7334 12.3472 37.7277 12.1804C37.7219 12.0136 37.6586 11.8756 37.5436 11.772C37.4286 11.6628 37.2848 11.5822 37.1065 11.5132C36.9282 11.45 36.7269 11.3924 36.4969 11.3464C36.2668 11.3004 36.0368 11.2487 35.801 11.1969C35.5594 11.1451 35.3236 11.0761 35.0993 11.0014C34.875 10.9266 34.6737 10.8231 34.4955 10.6908C34.3172 10.5643 34.1734 10.3975 34.0699 10.1962C33.9606 9.99486 33.9088 9.74756 33.9088 9.44849C33.9088 9.12642 33.9893 8.86186 34.1446 8.64332C34.2999 8.42477 34.5012 8.25223 34.737 8.11995C34.9786 7.98767 35.2431 7.89565 35.5364 7.83814C35.8297 7.78638 36.1116 7.75762 36.3761 7.75762C36.6809 7.75762 36.9742 7.79213 37.2503 7.85539C37.5264 7.91866 37.7794 8.02218 38.0037 8.17171C38.228 8.31549 38.4121 8.50529 38.5616 8.73534C38.7111 8.96539 38.8031 9.2472 38.8434 9.57502H37.4861C37.4228 9.26445 37.2848 9.05166 37.0605 8.94813C36.8362 8.83886 36.5774 8.7871 36.2898 8.7871C36.1978 8.7871 36.0886 8.79285 35.962 8.8101C35.8355 8.82736 35.7205 8.85611 35.6054 8.89637C35.4962 8.93663 35.4042 8.99989 35.3236 9.08041C35.2489 9.16093 35.2086 9.26445 35.2086 9.39673C35.2086 9.55777 35.2661 9.68429 35.3754 9.78207C35.4847 9.87984 35.6284 9.96035 35.8067 10.0294C35.985 10.0927 36.1863 10.1502 36.4164 10.1962C36.6464 10.2422 36.8822 10.294 37.1238 10.3457C37.3596 10.3975 37.5896 10.4665 37.8197 10.5413C38.0497 10.616 38.251 10.7196 38.4293 10.8518C38.6076 10.9841 38.7514 11.1451 38.8607 11.3407C38.9699 11.5362 39.0274 11.7835 39.0274 12.0711C39.0274 12.4219 38.9469 12.7152 38.7859 12.9625C38.6249 13.2041 38.4178 13.4054 38.1648 13.5549C37.9117 13.7045 37.6241 13.8195 37.3136 13.8885C37.003 13.9575 36.6924 13.992 36.3876 13.992C36.0138 13.992 35.6687 13.9518 35.3524 13.8655C35.0361 13.7792 34.76 13.6527 34.53 13.4859C34.2999 13.3134 34.1159 13.1006 33.9836 12.8475C33.8513 12.5945 33.7823 12.2896 33.7708 11.9388H35.0821V11.9273ZM39.3725 7.91866H40.356V6.14727H41.6558V7.91866H42.829V8.89062H41.6558V12.0423C41.6558 12.1804 41.6615 12.2954 41.673 12.3989C41.6845 12.4967 41.7133 12.583 41.7535 12.652C41.7938 12.721 41.8571 12.7727 41.9433 12.8073C42.0296 12.8418 42.1389 12.859 42.2884 12.859C42.3804 12.859 42.4724 12.859 42.5645 12.8533C42.6565 12.8475 42.7485 12.836 42.8405 12.813V13.8195C42.6967 13.8367 42.553 13.8482 42.4207 13.8655C42.2827 13.8827 42.1446 13.8885 42.0008 13.8885C41.6558 13.8885 41.3797 13.854 41.1727 13.7907C40.9656 13.7275 40.7988 13.6297 40.6838 13.5032C40.563 13.3766 40.4883 13.2213 40.4423 13.0316C40.402 12.8418 40.3732 12.6232 40.3675 12.3817V8.90212H39.384V7.91866H39.3725ZM43.7492 7.91866H44.98V8.71808H45.003C45.187 8.37301 45.4401 8.13145 45.7679 7.98192C46.0957 7.83239 46.4466 7.75762 46.8319 7.75762C47.2978 7.75762 47.7003 7.83814 48.0454 8.00493C48.3905 8.16596 48.6781 8.39026 48.9081 8.67782C49.1382 8.96539 49.3049 9.29896 49.42 9.67854C49.535 10.0582 49.5925 10.4665 49.5925 10.8978C49.5925 11.2947 49.5407 11.68 49.4372 12.0481C49.3337 12.4219 49.1784 12.7497 48.9714 13.0373C48.7643 13.3249 48.4998 13.5492 48.1777 13.7217C47.8556 13.8942 47.4818 13.9805 47.0447 13.9805C46.8549 13.9805 46.6651 13.9633 46.4753 13.9288C46.2855 13.8942 46.1015 13.8367 45.929 13.762C45.7564 13.6872 45.5896 13.5894 45.4458 13.4687C45.2963 13.3479 45.1755 13.2098 45.072 13.0546H45.049V15.9992H43.7492V7.91866ZM48.2927 10.8748C48.2927 10.6103 48.2582 10.3515 48.1892 10.0984C48.1202 9.84533 48.0167 9.62678 47.8786 9.43124C47.7406 9.2357 47.5681 9.08041 47.3668 8.96539C47.1597 8.85036 46.9239 8.7871 46.6594 8.7871C46.113 8.7871 45.6989 8.97689 45.4228 9.35647C45.1468 9.73606 45.0088 10.2422 45.0088 10.8748C45.0088 11.1739 45.0433 11.45 45.118 11.703C45.1928 11.9561 45.2963 12.1746 45.4458 12.3587C45.5896 12.5427 45.7622 12.6865 45.9635 12.79C46.1648 12.8993 46.4006 12.951 46.6651 12.951C46.9642 12.951 47.2115 12.8878 47.4185 12.767C47.6256 12.6462 47.7924 12.4852 47.9246 12.2954C48.0569 12.0999 48.1547 11.8813 48.2122 11.634C48.264 11.3867 48.2927 11.1336 48.2927 10.8748ZM50.5875 5.66992H51.8873V6.90069H50.5875V5.66992ZM50.5875 7.91866H51.8873V13.8195H50.5875V7.91866ZM53.049 5.66992H54.3488V13.8195H53.049V5.66992ZM58.3344 13.9805C57.8628 13.9805 57.443 13.9 57.0749 13.7447C56.7068 13.5894 56.3962 13.3709 56.1374 13.1006C55.8844 12.8245 55.6888 12.4967 55.5566 12.1171C55.4243 11.7375 55.3553 11.3177 55.3553 10.8633C55.3553 10.4147 55.4243 10.0006 55.5566 9.62103C55.6888 9.24145 55.8844 8.91363 56.1374 8.63757C56.3905 8.3615 56.7068 8.14871 57.0749 7.99342C57.443 7.83814 57.8628 7.75762 58.3344 7.75762C58.806 7.75762 59.2259 7.83814 59.5939 7.99342C59.962 8.14871 60.2726 8.36726 60.5314 8.63757C60.7845 8.91363 60.98 9.24145 61.1123 9.62103C61.2446 10.0006 61.3136 10.4147 61.3136 10.8633C61.3136 11.3177 61.2446 11.7375 61.1123 12.1171C60.98 12.4967 60.7845 12.8245 60.5314 13.1006C60.2783 13.3766 59.962 13.5894 59.5939 13.7447C59.2259 13.9 58.806 13.9805 58.3344 13.9805ZM58.3344 12.951C58.622 12.951 58.875 12.8878 59.0878 12.767C59.3006 12.6462 59.4732 12.4852 59.6112 12.2896C59.7492 12.0941 59.847 11.8698 59.916 11.6225C59.9793 11.3752 60.0138 11.1221 60.0138 10.8633C60.0138 10.6103 59.9793 10.363 59.916 10.1099C59.8528 9.85683 59.7492 9.63828 59.6112 9.44274C59.4732 9.2472 59.3006 9.09191 59.0878 8.97114C58.875 8.85036 58.622 8.7871 58.3344 8.7871C58.0469 8.7871 57.7938 8.85036 57.581 8.97114C57.3682 9.09191 57.1957 9.25295 57.0576 9.44274C56.9196 9.63828 56.8218 9.85683 56.7528 10.1099C56.6896 10.363 56.6551 10.6103 56.6551 10.8633C56.6551 11.1221 56.6896 11.3752 56.7528 11.6225C56.8161 11.8698 56.9196 12.0941 57.0576 12.2896C57.1957 12.4852 57.3682 12.6462 57.581 12.767C57.7938 12.8935 58.0469 12.951 58.3344 12.951ZM61.6932 7.91866H62.6766V6.14727H63.9764V7.91866H65.1497V8.89062H63.9764V12.0423C63.9764 12.1804 63.9821 12.2954 63.9937 12.3989C64.0052 12.4967 64.0339 12.583 64.0742 12.652C64.1144 12.721 64.1777 12.7727 64.264 12.8073C64.3502 12.8418 64.4595 12.859 64.609 12.859C64.7011 12.859 64.7931 12.859 64.8851 12.8533C64.9771 12.8475 65.0691 12.836 65.1612 12.813V13.8195C65.0174 13.8367 64.8736 13.8482 64.7413 13.8655C64.6033 13.8827 64.4653 13.8885 64.3215 13.8885C63.9764 13.8885 63.7003 13.854 63.4933 13.7907C63.2863 13.7275 63.1195 13.6297 63.0044 13.5032C62.8837 13.3766 62.8089 13.2213 62.7629 13.0316C62.7226 12.8418 62.6939 12.6232 62.6881 12.3817V8.90212H61.7047V7.91866H61.6932Z" fill="white"/>
<path d="M15.6032 5.67074H9.64486L7.80446 0L5.9583 5.67074L0 5.66499L4.82531 9.17326L2.97915 14.8382L7.80446 11.3357L12.624 14.8382L10.7836 9.17326L15.6032 5.67074Z" fill="#00B67A"/>
<path d="M11.1979 10.4564L10.7838 9.17383L7.80469 11.3363L11.1979 10.4564Z" fill="#005128"/>
</svg>
