<svg width="20" height="21" viewBox="0 0 20 21" fill="none" xmlns="http://www.w3.org/2000/svg">
<path d="M10.4422 0.60651C11.5338 0.589844 12.6172 0.598177 13.7005 0.589844C13.7672 1.86484 14.2255 3.16484 15.1588 4.06484C16.0922 4.98984 17.4088 5.41484 18.6922 5.55651V8.91484C17.4922 8.87318 16.2838 8.62318 15.1922 8.10651C14.7172 7.88984 14.2755 7.61484 13.8422 7.33151C13.8338 9.76484 13.8505 12.1982 13.8255 14.6232C13.7588 15.7898 13.3755 16.9482 12.7005 17.9065C11.6088 19.5065 9.71716 20.5482 7.77549 20.5815C6.58382 20.6482 5.39216 20.3232 4.37549 19.7232C2.69216 18.7315 1.50882 16.9148 1.33382 14.9648C1.31716 14.5482 1.30882 14.1315 1.32549 13.7232C1.47549 12.1398 2.25882 10.6232 3.47549 9.58984C4.85882 8.38984 6.79216 7.81484 8.60049 8.15651C8.61716 9.38984 8.56716 10.6232 8.56716 11.8565C7.74216 11.5898 6.77549 11.6648 6.05049 12.1648C5.52549 12.5065 5.12549 13.0315 4.91716 13.6232C4.74216 14.0482 4.79216 14.5148 4.80049 14.9648C5.00049 16.3315 6.31716 17.4815 7.71716 17.3565C8.65049 17.3482 9.54216 16.8065 10.0255 16.0148C10.1838 15.7398 10.3588 15.4565 10.3672 15.1315C10.4505 13.6398 10.4172 12.1565 10.4255 10.6648C10.4338 7.30651 10.4172 3.95651 10.4422 0.60651Z" fill="white"/>
</svg>
