<svg width="20" height="21" viewBox="0 0 20 21" fill="none" xmlns="http://www.w3.org/2000/svg">
<path d="M10.2618 2.25684C12.2868 2.25684 12.5818 2.26767 13.4352 2.30684C14.3218 2.34767 14.9277 2.4885 15.4577 2.69434C16.0139 2.9034 16.5179 3.2313 16.9343 3.65517C17.3582 4.07165 17.6861 4.57559 17.8952 5.13184C18.101 5.66184 18.2418 6.26767 18.2827 7.15434C18.3227 8.0435 18.3327 8.32684 18.3327 10.5902V10.6568C18.3327 12.8593 18.3227 13.146 18.2827 14.026C18.2418 14.9127 18.101 15.5185 17.8952 16.0485C17.6861 16.6048 17.3582 17.1087 16.9343 17.5252C16.5179 17.949 16.0139 18.2769 15.4577 18.486C14.9277 18.6918 14.3218 18.8327 13.4352 18.8735C12.546 18.9135 12.2627 18.9235 9.99935 18.9235H9.93268C7.73018 18.9235 7.44352 18.9135 6.56352 18.8735C5.67685 18.8327 5.07102 18.6918 4.54102 18.486C3.98477 18.2769 3.48083 17.949 3.06435 17.5252C2.64048 17.1087 2.31258 16.6048 2.10352 16.0485C1.89768 15.5185 1.75685 14.9127 1.71602 14.026C1.67685 13.1727 1.66602 12.8768 1.66602 10.8527V10.3277C1.66602 8.30267 1.67685 8.00767 1.71602 7.15434C1.75685 6.26767 1.89768 5.66184 2.10352 5.13184C2.31258 4.57559 2.64048 4.07165 3.06435 3.65517C3.48083 3.2313 3.98477 2.9034 4.54102 2.69434C5.07102 2.4885 5.67685 2.34767 6.56352 2.30684C7.41685 2.26767 7.71268 2.25684 9.73685 2.25684H10.2618ZM10.1943 3.7585H9.80435C7.75768 3.7585 7.48435 3.76767 6.63185 3.80684C5.81935 3.84434 5.37852 3.97934 5.08435 4.0935C4.69518 4.24517 4.41768 4.42517 4.12602 4.71684C3.83435 5.0085 3.65435 5.286 3.50268 5.67517C3.38852 5.96934 3.25268 6.41017 3.21602 7.22267C3.17685 8.07517 3.16768 8.3485 3.16768 10.3952V10.7852C3.16768 12.8318 3.17685 13.1052 3.21602 13.9577C3.25352 14.7702 3.38852 15.211 3.50268 15.5052C3.65435 15.8935 3.83518 16.1718 4.12602 16.4635C4.41768 16.7552 4.69518 16.9352 5.08435 17.0868C5.37852 17.201 5.81935 17.3368 6.63185 17.3735C7.51018 17.4135 7.77352 17.4218 9.99935 17.4218H10.066C12.2302 17.4218 12.4968 17.4135 13.366 17.3735C14.1793 17.336 14.6202 17.201 14.9143 17.0868C15.3027 16.9352 15.581 16.7552 15.8727 16.4635C16.1643 16.1718 16.3443 15.8943 16.496 15.5052C16.6102 15.211 16.746 14.7702 16.7827 13.9577C16.8227 13.0785 16.831 12.816 16.831 10.5902V10.5235C16.831 8.35934 16.8227 8.09267 16.7827 7.2235C16.7452 6.41017 16.6102 5.96934 16.496 5.67517C16.3625 5.31314 16.1495 4.98567 15.8727 4.71684C15.6038 4.44005 15.2764 4.22705 14.9143 4.0935C14.6202 3.97934 14.1793 3.8435 13.3668 3.80684C12.5143 3.76767 12.241 3.7585 10.1943 3.7585ZM9.99935 6.311C10.5613 6.311 11.1177 6.42169 11.6369 6.63673C12.1561 6.85178 12.6278 7.16698 13.0252 7.56434C13.4225 7.9617 13.7377 8.43343 13.9528 8.9526C14.1678 9.47178 14.2785 10.0282 14.2785 10.5902C14.2785 11.1521 14.1678 11.7086 13.9528 12.2277C13.7377 12.7469 13.4225 13.2186 13.0252 13.616C12.6278 14.0134 12.1561 14.3286 11.6369 14.5436C11.1177 14.7587 10.5613 14.8693 9.99935 14.8693C8.86444 14.8693 7.77602 14.4185 6.97352 13.616C6.17102 12.8135 5.72018 11.7251 5.72018 10.5902C5.72018 9.45526 6.17102 8.36684 6.97352 7.56434C7.77602 6.76184 8.86444 6.311 9.99935 6.311ZM9.99935 7.81267C9.26271 7.81267 8.55624 8.1053 8.03536 8.62618C7.51448 9.14706 7.22185 9.85353 7.22185 10.5902C7.22185 11.3268 7.51448 12.0333 8.03536 12.5542C8.55624 13.075 9.26271 13.3677 9.99935 13.3677C10.736 13.3677 11.4425 13.075 11.9633 12.5542C12.4842 12.0333 12.7768 11.3268 12.7768 10.5902C12.7768 9.85353 12.4842 9.14706 11.9633 8.62618C11.4425 8.1053 10.736 7.81267 9.99935 7.81267ZM14.4477 5.14184C14.7129 5.14184 14.9673 5.24719 15.1548 5.43473C15.3423 5.62227 15.4477 5.87662 15.4477 6.14184C15.4477 6.40705 15.3423 6.66141 15.1548 6.84894C14.9673 7.03648 14.7129 7.14184 14.4477 7.14184C14.1825 7.14184 13.9281 7.03648 13.7406 6.84894C13.553 6.66141 13.4477 6.40705 13.4477 6.14184C13.4477 5.87662 13.553 5.62227 13.7406 5.43473C13.9281 5.24719 14.1825 5.14184 14.4477 5.14184Z" fill="white"/>
</svg>
