<svg width="20" height="20" viewBox="0 0 20 20" fill="none" xmlns="http://www.w3.org/2000/svg">
<path d="M10.4422 0.0166667C11.5338 0 12.6172 0.00833333 13.7005 0C13.7672 1.275 14.2255 2.575 15.1588 3.475C16.0922 4.4 17.4088 4.825 18.6922 4.96667V8.325C17.4922 8.28333 16.2838 8.03333 15.1922 7.51667C14.7172 7.3 14.2755 7.025 13.8422 6.74167C13.8338 9.175 13.8505 11.6083 13.8255 14.0333C13.7588 15.2 13.3755 16.3583 12.7005 17.3167C11.6088 18.9167 9.71716 19.9583 7.77549 19.9917C6.58382 20.0583 5.39216 19.7333 4.37549 19.1333C2.69216 18.1417 1.50882 16.325 1.33382 14.375C1.31716 13.9583 1.30882 13.5417 1.32549 13.1333C1.47549 11.55 2.25882 10.0333 3.47549 9C4.85882 7.8 6.79216 7.225 8.60049 7.56667C8.61716 8.8 8.56716 10.0333 8.56716 11.2667C7.74216 11 6.77549 11.075 6.05049 11.575C5.52549 11.9167 5.12549 12.4417 4.91716 13.0333C4.74216 13.4583 4.79216 13.925 4.80049 14.375C5.00049 15.7417 6.31716 16.8917 7.71716 16.7667C8.65049 16.7583 9.54216 16.2167 10.0255 15.425C10.1838 15.15 10.3588 14.8667 10.3672 14.5417C10.4505 13.05 10.4172 11.5667 10.4255 10.075C10.4338 6.71667 10.4172 3.36667 10.4422 0.0166667Z" fill="white" fill-opacity="0.82"/>
</svg>
