<svg width="20" height="20" viewBox="0 0 20 20" fill="none" xmlns="http://www.w3.org/2000/svg">
<path d="M10.2618 1.66699C12.2868 1.66699 12.5818 1.67783 13.4352 1.71699C14.3218 1.75783 14.9277 1.89866 15.4577 2.10449C16.0139 2.31355 16.5179 2.64146 16.9343 3.06533C17.3582 3.4818 17.6861 3.98574 17.8952 4.54199C18.101 5.07199 18.2418 5.67783 18.2827 6.56449C18.3227 7.45366 18.3327 7.73699 18.3327 10.0003V10.067C18.3327 12.2695 18.3227 12.5562 18.2827 13.4362C18.2418 14.3228 18.101 14.9287 17.8952 15.4587C17.6861 16.0149 17.3582 16.5188 16.9343 16.9353C16.5179 17.3592 16.0139 17.6871 15.4577 17.8962C14.9277 18.102 14.3218 18.2428 13.4352 18.2837C12.546 18.3237 12.2627 18.3337 9.99935 18.3337H9.93268C7.73018 18.3337 7.44352 18.3237 6.56352 18.2837C5.67685 18.2428 5.07102 18.102 4.54102 17.8962C3.98477 17.6871 3.48083 17.3592 3.06435 16.9353C2.64048 16.5188 2.31258 16.0149 2.10352 15.4587C1.89768 14.9287 1.75685 14.3228 1.71602 13.4362C1.67685 12.5828 1.66602 12.287 1.66602 10.2628V9.73783C1.66602 7.71283 1.67685 7.41783 1.71602 6.56449C1.75685 5.67783 1.89768 5.07199 2.10352 4.54199C2.31258 3.98574 2.64048 3.4818 3.06435 3.06533C3.48083 2.64146 3.98477 2.31355 4.54102 2.10449C5.07102 1.89866 5.67685 1.75783 6.56352 1.71699C7.41685 1.67783 7.71268 1.66699 9.73685 1.66699H10.2618ZM10.1943 3.16866H9.80435C7.75768 3.16866 7.48435 3.17783 6.63185 3.21699C5.81935 3.25449 5.37852 3.38949 5.08435 3.50366C4.69518 3.65533 4.41768 3.83533 4.12602 4.12699C3.83435 4.41866 3.65435 4.69616 3.50268 5.08533C3.38852 5.37949 3.25268 5.82033 3.21602 6.63283C3.17685 7.48533 3.16768 7.75866 3.16768 9.80533V10.1953C3.16768 12.242 3.17685 12.5153 3.21602 13.3678C3.25352 14.1803 3.38852 14.6212 3.50268 14.9153C3.65435 15.3037 3.83518 15.582 4.12602 15.8737C4.41768 16.1653 4.69518 16.3453 5.08435 16.497C5.37852 16.6112 5.81935 16.747 6.63185 16.7837C7.51018 16.8237 7.77352 16.832 9.99935 16.832H10.066C12.2302 16.832 12.4968 16.8237 13.366 16.7837C14.1793 16.7462 14.6202 16.6112 14.9143 16.497C15.3027 16.3453 15.581 16.1653 15.8727 15.8737C16.1643 15.582 16.3443 15.3045 16.496 14.9153C16.6102 14.6212 16.746 14.1803 16.7827 13.3678C16.8227 12.4887 16.831 12.2262 16.831 10.0003V9.93366C16.831 7.76949 16.8227 7.50283 16.7827 6.63366C16.7452 5.82033 16.6102 5.37949 16.496 5.08533C16.3625 4.7233 16.1495 4.39582 15.8727 4.12699C15.6038 3.85021 15.2764 3.63721 14.9143 3.50366C14.6202 3.38949 14.1793 3.25366 13.3668 3.21699C12.5143 3.17783 12.241 3.16866 10.1943 3.16866ZM9.99935 5.72116C10.5613 5.72116 11.1177 5.83184 11.6369 6.04689C12.1561 6.26194 12.6278 6.57714 13.0252 6.9745C13.4225 7.37186 13.7377 7.84359 13.9528 8.36276C14.1678 8.88193 14.2785 9.43838 14.2785 10.0003C14.2785 10.5623 14.1678 11.1187 13.9528 11.6379C13.7377 12.1571 13.4225 12.6288 13.0252 13.0262C12.6278 13.4235 12.1561 13.7387 11.6369 13.9538C11.1177 14.1688 10.5613 14.2795 9.99935 14.2795C8.86444 14.2795 7.77602 13.8287 6.97352 13.0262C6.17102 12.2237 5.72018 11.1352 5.72018 10.0003C5.72018 8.86542 6.17102 7.777 6.97352 6.9745C7.77602 6.172 8.86444 5.72116 9.99935 5.72116ZM9.99935 7.22283C9.26271 7.22283 8.55624 7.51545 8.03536 8.03634C7.51448 8.55722 7.22185 9.26369 7.22185 10.0003C7.22185 10.737 7.51448 11.4434 8.03536 11.9643C8.55624 12.4852 9.26271 12.7778 9.99935 12.7778C10.736 12.7778 11.4425 12.4852 11.9633 11.9643C12.4842 11.4434 12.7768 10.737 12.7768 10.0003C12.7768 9.26369 12.4842 8.55722 11.9633 8.03634C11.4425 7.51545 10.736 7.22283 9.99935 7.22283ZM14.4477 4.55199C14.7129 4.55199 14.9673 4.65735 15.1548 4.84489C15.3423 5.03242 15.4477 5.28678 15.4477 5.55199C15.4477 5.81721 15.3423 6.07156 15.1548 6.2591C14.9673 6.44664 14.7129 6.55199 14.4477 6.55199C14.1825 6.55199 13.9281 6.44664 13.7406 6.2591C13.553 6.07156 13.4477 5.81721 13.4477 5.55199C13.4477 5.28678 13.553 5.03242 13.7406 4.84489C13.9281 4.65735 14.1825 4.55199 14.4477 4.55199Z" fill="white" fill-opacity="0.82"/>
</svg>
