<svg width="20" height="21" viewBox="0 0 20 21" fill="none" xmlns="http://www.w3.org/2000/svg">
<path d="M16.9312 4.23141C15.6346 3.63627 14.2662 3.2119 12.8604 2.96891C12.8476 2.96641 12.8343 2.96805 12.8225 2.97359C12.8106 2.97914 12.8009 2.98829 12.7946 2.99974C12.6196 3.31224 12.4246 3.71974 12.2879 4.04141C10.7724 3.81123 9.23088 3.81123 7.7154 4.04141C7.5633 3.68499 7.39165 3.33724 7.20123 2.99974C7.19467 2.98855 7.18486 2.97961 7.1731 2.97411C7.16135 2.9686 7.1482 2.96679 7.1354 2.96891C5.72944 3.21139 4.36101 3.63579 3.06457 4.23141C3.05359 4.23601 3.04429 4.24387 3.0379 4.25391C0.444567 8.12808 -0.266266 11.9064 0.0829005 15.6372C0.0837487 15.6465 0.0864772 15.6555 0.0909192 15.6637C0.0953611 15.6718 0.101423 15.679 0.108734 15.6847C1.6184 16.8032 3.30716 17.6571 5.1029 18.2097C5.11556 18.2134 5.12903 18.2131 5.14153 18.209C5.15403 18.2048 5.16497 18.1969 5.1729 18.1864C5.55895 17.6618 5.90069 17.106 6.19457 16.5247C6.19866 16.5168 6.20103 16.5081 6.2015 16.4991C6.20198 16.4902 6.20056 16.4812 6.19733 16.4729C6.1941 16.4646 6.18914 16.457 6.18278 16.4507C6.17641 16.4444 6.16878 16.4395 6.1604 16.4364C5.62159 16.2302 5.09995 15.9817 4.6004 15.6931C4.59124 15.6878 4.58354 15.6803 4.57797 15.6713C4.5724 15.6623 4.56914 15.6521 4.56848 15.6415C4.56782 15.631 4.56978 15.6204 4.57418 15.6108C4.57859 15.6012 4.58531 15.5928 4.59373 15.5864C4.69893 15.5077 4.80229 15.4266 4.90373 15.3431C4.91261 15.3359 4.92331 15.3313 4.93464 15.3298C4.94597 15.3283 4.95748 15.3301 4.9679 15.3347C8.24123 16.8289 11.7846 16.8289 15.0196 15.3347C15.0301 15.3299 15.0418 15.3281 15.0533 15.3296C15.0648 15.331 15.0756 15.3357 15.0846 15.3431C15.1846 15.4247 15.2896 15.5081 15.3954 15.5864C15.4037 15.5927 15.4104 15.6009 15.4148 15.6104C15.4193 15.6198 15.4213 15.6302 15.4208 15.6406C15.4203 15.6511 15.4173 15.6612 15.412 15.6702C15.4067 15.6792 15.3993 15.6868 15.3904 15.6922C14.892 15.9835 14.3699 16.2322 13.8296 16.4356C13.8212 16.4388 13.8135 16.4438 13.8071 16.4501C13.8008 16.4565 13.7958 16.4641 13.7926 16.4725C13.7894 16.481 13.788 16.4899 13.7884 16.4989C13.7889 16.5079 13.7913 16.5167 13.7954 16.5247C14.0954 17.1064 14.4387 17.6597 14.8162 18.1856C14.824 18.1963 14.8349 18.2043 14.8475 18.2085C14.86 18.2127 14.8736 18.2128 14.8862 18.2089C16.685 17.6579 18.3765 16.804 19.8879 15.6839C19.8953 15.6787 19.9014 15.672 19.906 15.6643C19.9106 15.6565 19.9135 15.6479 19.9146 15.6389C20.3312 11.3247 19.2162 7.57724 16.9571 4.25558C16.9518 4.24438 16.9426 4.23632 16.9312 4.23141ZM6.68373 13.3647C5.6979 13.3647 4.88623 12.4606 4.88623 11.3489C4.88623 10.2381 5.6829 9.33308 6.68373 9.33308C7.69207 9.33308 8.49707 10.2464 8.48123 11.3497C8.48123 12.4606 7.68457 13.3647 6.68373 13.3647ZM13.3296 13.3647C12.3437 13.3647 11.5321 12.4606 11.5321 11.3489C11.5321 10.2381 12.3279 9.33308 13.3296 9.33308C14.3379 9.33308 15.1429 10.2464 15.1271 11.3497C15.1271 12.4606 14.3387 13.3647 13.3296 13.3647Z" fill="white"/>
</svg>
