<svg width="20" height="21" viewBox="0 0 20 21" fill="none" xmlns="http://www.w3.org/2000/svg">
<path fill-rule="evenodd" clip-rule="evenodd" d="M3.125 10.3399C3.125 10.1741 3.19085 10.0151 3.30806 9.89794C3.42527 9.78073 3.58424 9.71488 3.75 9.71488H14.7417L10.1833 5.15655C10.0729 5.03807 10.0128 4.88136 10.0157 4.71944C10.0185 4.55753 10.0841 4.40304 10.1986 4.28853C10.3132 4.17402 10.4676 4.10842 10.6296 4.10557C10.7915 4.10271 10.9482 4.16281 11.0667 4.27321L16.6917 9.89821C16.8087 10.0154 16.8744 10.1743 16.8744 10.3399C16.8744 10.5055 16.8087 10.6644 16.6917 10.7815L11.0667 16.4065C11.0094 16.468 10.9404 16.5172 10.8638 16.5514C10.7871 16.5855 10.7044 16.6039 10.6204 16.6054C10.5365 16.6069 10.4532 16.5914 10.3753 16.56C10.2975 16.5285 10.2268 16.4818 10.1675 16.4224C10.1081 16.3631 10.0613 16.2924 10.0299 16.2145C9.99846 16.1367 9.98303 16.0534 9.98451 15.9694C9.98599 15.8855 10.0044 15.8028 10.0385 15.7261C10.0727 15.6494 10.1219 15.5804 10.1833 15.5232L14.7417 10.9649H3.75C3.58424 10.9649 3.42527 10.899 3.30806 10.7818C3.19085 10.6646 3.125 10.5056 3.125 10.3399Z" fill="#13B5CB"/>
</svg>
