<svg width="1592" height="201" viewBox="0 0 1592 201" fill="none" xmlns="http://www.w3.org/2000/svg">
<path fill-rule="evenodd" clip-rule="evenodd" d="M1312.41 201L1312.41 0L1313.94 4.37112e-08L1313.94 201H1312.41Z" fill="#FAFAFA" fill-opacity="0.3"/>
<path fill-rule="evenodd" clip-rule="evenodd" d="M1443.53 201L1443.53 0L1445.06 4.37112e-08L1445.06 201H1443.53Z" fill="#FAFAFA" fill-opacity="0.3"/>
<path fill-rule="evenodd" clip-rule="evenodd" d="M1181.29 201L1181.29 0L1182.82 4.37112e-08L1182.82 201H1181.29Z" fill="#FAFAFA" fill-opacity="0.3"/>
<path fill-rule="evenodd" clip-rule="evenodd" d="M1050.17 201L1050.17 0L1051.7 4.37112e-08L1051.7 201H1050.17Z" fill="#FAFAFA" fill-opacity="0.3"/>
<path fill-rule="evenodd" clip-rule="evenodd" d="M919.051 201L919.051 0L920.576 4.37112e-08L920.576 201H919.051Z" fill="#FAFAFA" fill-opacity="0.3"/>
<path fill-rule="evenodd" clip-rule="evenodd" d="M787.93 201L787.93 0L789.455 4.37112e-08L789.455 201H787.93Z" fill="#FAFAFA" fill-opacity="0.3"/>
<path fill-rule="evenodd" clip-rule="evenodd" d="M656.81 201V0L658.334 4.37112e-08V201H656.81Z" fill="#FAFAFA" fill-opacity="0.3"/>
<path fill-rule="evenodd" clip-rule="evenodd" d="M525.689 201V0L527.214 4.37112e-08V201H525.689Z" fill="#FAFAFA" fill-opacity="0.3"/>
<path fill-rule="evenodd" clip-rule="evenodd" d="M394.568 201V0L396.093 4.37112e-08V201H394.568Z" fill="#FAFAFA" fill-opacity="0.3"/>
<path fill-rule="evenodd" clip-rule="evenodd" d="M263.447 201V0L264.972 4.37112e-08V201H263.447Z" fill="#FAFAFA" fill-opacity="0.3"/>
<path fill-rule="evenodd" clip-rule="evenodd" d="M132.326 201L132.327 0L133.851 4.37112e-08L133.851 201H132.326Z" fill="#FAFAFA" fill-opacity="0.3"/>
<path fill-rule="evenodd" clip-rule="evenodd" d="M1586.85 49H1.20571V48H1586.85V49Z" fill="#FAFAFA" fill-opacity="0.3"/>
<path fill-rule="evenodd" clip-rule="evenodd" d="M1586.85 101H1.20571V100H1586.85V101Z" fill="#FAFAFA" fill-opacity="0.3"/>
<path fill-rule="evenodd" clip-rule="evenodd" d="M1586.85 162H1.20571V161H1586.85V162Z" fill="#FAFAFA" fill-opacity="0.3"/>
<path fill-rule="evenodd" clip-rule="evenodd" d="M1463.46 58.8908L1464.13 59.0869C1471.78 61.329 1483.49 64.6915 1493.73 67.4924C1498.86 68.8933 1503.61 70.1501 1507.3 71.0554C1509.14 71.5085 1510.71 71.8693 1511.91 72.1154C1512.52 72.2387 1513.01 72.3297 1513.4 72.3889C1513.59 72.4185 1513.75 72.4385 1513.87 72.4507C1513.93 72.4567 1513.97 72.4604 1514.01 72.4625C1514.03 72.4635 1514.04 72.4641 1514.05 72.4644L1514.06 72.4647C1514.9 72.4647 1515.55 72.7517 1515.99 73.0125C1516.45 73.2847 1516.86 73.6427 1517.24 74.028C1518 74.8027 1518.79 75.869 1519.59 77.0836C1520.58 78.588 1521.67 80.4207 1522.81 82.3521C1523.5 83.5305 1524.22 84.7456 1524.95 85.9454C1526.92 89.1559 1529.01 92.2988 1531.19 94.6293C1532.29 95.7955 1533.36 96.7095 1534.4 97.3218C1535.45 97.9369 1536.32 98.17 1537.04 98.17C1539.35 98.17 1541.96 98.694 1544.59 99.4616C1547.24 100.237 1550.04 101.301 1552.74 102.466C1558.13 104.791 1563.28 107.574 1566.39 109.438C1566.4 109.442 1566.41 109.445 1566.41 109.448L1573.84 113.605L1592 118.441L1590.85 120.294L1572.24 115.337L1564.39 110.948L1564.37 110.936L1564.35 110.925C1561.34 109.117 1556.31 106.397 1551.06 104.137C1548.44 103.007 1545.8 102.005 1543.35 101.288C1540.87 100.564 1538.72 100.17 1537.04 100.17C1535.27 100.17 1533.7 99.5999 1532.36 98.8093C1531.02 98.0158 1529.76 96.9216 1528.6 95.6779C1526.26 93.1886 1524.09 89.9052 1522.12 86.6893C1521.36 85.4353 1520.63 84.1972 1519.93 83.0118C1518.81 81.1154 1517.77 79.354 1516.79 77.8787C1516 76.6834 1515.3 75.7415 1514.68 75.1104C1514.37 74.7929 1514.12 74.5986 1513.94 74.4942C1513.92 74.4807 1513.9 74.4699 1513.88 74.4615C1513.51 74.4483 1513.1 74.397 1512.71 74.3366C1512.22 74.2622 1511.65 74.156 1511.01 74.025C1509.72 73.7627 1508.1 73.3872 1506.23 72.9286C1502.49 72.0105 1497.7 70.7427 1492.56 69.3385C1482.58 66.6097 1471.22 63.3521 1463.55 61.1091L1399.43 82.8093L1380.24 100.692L1351.83 83.0331H1311.53L1273.03 99.9231L1246.2 120.73L1203.35 99.8065L1203.18 99.5498C1200.66 95.5076 1196.21 89.3827 1191.13 84.1627C1188.59 81.5509 1185.92 79.1985 1183.28 77.4505C1180.59 75.6758 1178.14 74.6519 1176.04 74.4546C1171.39 74.0181 1167.68 75.1844 1164.86 76.8929C1162 78.6201 1160.13 80.8602 1159.3 82.3712L1159.19 82.5817L1158.95 82.74C1151.78 87.4429 1140.57 94.4989 1130.22 100.385C1125.05 103.326 1120.06 105.99 1115.89 107.924C1113.81 108.89 1111.9 109.689 1110.25 110.25C1108.65 110.79 1107.09 111.187 1105.78 111.187C1103.76 111.187 1100.18 111.71 1095.71 112.754C1091.3 113.787 1086.16 115.293 1081.06 117.178C1070.79 120.978 1061.03 126.193 1057.4 131.987C1056.33 133.7 1054.73 134.876 1052.63 135.505C1050.57 136.125 1048.23 136.151 1045.85 135.84C1041.15 135.224 1035.71 133.207 1030.44 130.911C1027.15 129.476 1023.8 127.871 1020.65 126.366C1018.76 125.461 1016.94 124.593 1015.26 123.82C1012.98 122.773 1010.94 121.891 1009.21 121.274C1007.41 120.635 1006.17 120.367 1005.43 120.367H985.644L985.531 119.448C984.766 113.236 983.39 103.923 981.749 96.1709C980.927 92.2902 980.044 88.8279 979.147 86.3474C978.696 85.0999 978.257 84.1467 977.847 83.5232C977.693 83.2892 977.562 83.1319 977.464 83.0331H925.267L852.23 100.054C839.609 106.852 811.536 122.601 798.214 132.278C793.723 135.54 786.894 137.672 779.24 139.165C771.562 140.662 762.865 141.55 754.471 142.24C751.468 142.486 748.514 142.707 745.655 142.921C740.465 143.309 735.587 143.674 731.293 144.128C727.978 144.479 725.084 144.876 722.736 145.364C720.36 145.857 718.691 146.414 717.694 147.026C716.458 147.786 714.708 148.334 712.705 148.741C710.682 149.152 708.278 149.444 705.624 149.643C700.316 150.04 693.846 150.076 687.08 149.897C673.539 149.538 658.614 148.308 648.999 147.284L648.524 147.233L648.18 147.013C640.504 142.107 623.181 129.766 615.704 119.809C613.763 117.225 609.145 115.763 602.507 115.391C595.93 115.022 587.793 115.759 579.566 117.27C571.351 118.779 563.148 121.041 556.455 123.668C549.708 126.316 544.705 129.253 542.605 132.05C540.545 134.792 536.55 136.758 531.702 138.164C526.84 139.575 520.954 140.472 514.842 141.014C502.71 142.091 489.403 141.793 480.759 141.185L420.797 147.327L364.228 132.467L328.832 110.949L274.444 83.1858C264.348 86.0404 249.367 90.1936 236.191 93.6714C229.422 95.4581 223.116 97.0699 218.188 98.2363C215.726 98.8191 213.592 99.2947 211.908 99.6259C211.067 99.7913 210.321 99.924 209.695 100.016C209.094 100.104 208.509 100.17 208.026 100.17C207.871 100.17 207.404 100.245 206.55 100.604C205.748 100.941 204.785 101.449 203.689 102.114C201.502 103.439 198.926 105.296 196.248 107.387C190.9 111.564 185.26 116.588 181.701 119.939L180.493 121.077L156.381 99.8848L122.732 83.4349C120.888 85.0365 118.507 86.9212 115.678 89.1449C115.343 89.4081 115.001 89.6761 114.653 89.9493C111.533 92.3996 107.891 95.2596 103.786 98.6247C100.872 101.014 95.4805 105.304 89.5292 109.538C83.6101 113.75 77.023 117.991 71.7334 120.21L71.1332 120.461L27.0391 111.35L2.41142 132.22L0 130.996L25.9285 109.023L70.6803 118.271C75.5153 116.138 81.6018 112.228 87.287 108.183C93.1737 103.994 98.5172 99.743 101.405 97.3753C105.531 93.9928 109.193 91.1171 112.313 88.6674C112.661 88.3941 113.002 88.1261 113.337 87.8634C116.681 85.2354 119.312 83.1473 121.18 81.4482L122.086 80.6243L158.559 98.4553L180.413 117.663C183.999 114.344 189.064 109.888 193.913 106.101C196.623 103.985 199.294 102.054 201.62 100.645C202.781 99.9412 203.891 99.3455 204.905 98.9197C205.865 98.5162 206.956 98.17 208.026 98.17C208.157 98.17 208.471 98.1465 209.028 98.0646C209.558 97.9866 210.228 97.8682 211.032 97.7101C212.639 97.3942 214.714 96.9326 217.153 96.3551C222.029 95.2009 228.295 93.5995 235.052 91.816C248.563 88.2499 263.986 83.9692 274.064 81.1151L274.893 80.8804L330.809 109.424L365.886 130.748L421.153 145.266L480.688 139.168L480.889 139.182C489.358 139.788 502.519 140.089 514.434 139.032C520.393 138.503 525.968 137.641 530.469 136.335C534.983 135.026 538.252 133.319 539.87 131.166C542.365 127.842 547.991 124.659 554.889 121.952C561.839 119.224 570.297 116.895 578.743 115.344C587.176 113.795 595.7 113.002 602.767 113.398C609.774 113.791 615.784 115.389 618.439 118.925C625.563 128.412 642.165 140.337 649.964 145.36C659.511 146.365 674.04 147.549 687.203 147.898C693.899 148.076 700.193 148.036 705.279 147.655C707.822 147.465 710.023 147.193 711.802 146.831C713.603 146.465 714.854 146.031 715.609 145.567C717.102 144.649 719.288 143.982 721.815 143.457C724.371 142.926 727.432 142.51 730.808 142.153C735.166 141.693 740.172 141.318 745.417 140.926C748.26 140.713 751.174 140.495 754.092 140.255C762.454 139.568 770.945 138.696 778.371 137.248C785.822 135.795 792.015 133.796 795.951 130.938C809.519 121.082 837.997 105.125 850.501 98.3969L850.707 98.2862L924.742 81.0331H977.859C978.777 81.0331 979.398 81.4158 979.73 81.6819C980.093 81.9718 980.391 82.3426 980.646 82.7307C981.164 83.5168 981.651 84.6054 982.114 85.8857C983.046 88.4608 983.944 91.9987 984.769 95.8958C986.342 103.325 987.67 112.158 988.456 118.367H1005.43C1007 118.367 1008.83 118.864 1010.66 119.516C1012.55 120.19 1014.71 121.125 1017.01 122.182C1018.79 123.001 1020.64 123.888 1022.55 124.8C1025.65 126.281 1028.87 127.825 1032.13 129.245C1037.39 131.538 1042.39 133.347 1046.45 133.879C1048.45 134.141 1050.08 134.072 1051.36 133.687C1052.61 133.312 1053.74 132.576 1054.58 131.228C1058.61 124.782 1069.15 119.286 1079.56 115.436C1084.81 113.496 1090.11 111.942 1094.69 110.87C1099.22 109.811 1103.21 109.187 1105.78 109.187C1106.31 109.187 1107.31 108.996 1108.84 108.474C1110.32 107.972 1112.1 107.231 1114.13 106.291C1118.18 104.412 1123.08 101.798 1128.22 98.8735C1138.39 93.0926 1149.41 86.1614 1156.56 81.4808C1157.57 79.7398 1159.64 77.3287 1162.79 75.4224C1166.11 73.4179 1170.7 71.9321 1176.47 72.4748C1179.58 72.7671 1182.63 74.1812 1185.44 76.0429C1188.29 77.9315 1191.1 80.4141 1193.7 83.0862C1198.8 88.3237 1203.24 94.4153 1205.84 98.5331L1245.72 118.004L1270.98 98.417L1310.61 81.0331H1353.04L1379.78 97.6484L1397.36 81.257L1463.46 58.8908ZM977.328 82.9179C977.328 82.9179 977.332 82.9202 977.342 82.9272C977.333 82.9218 977.328 82.9179 977.328 82.9179Z" fill="#13B5CB"/>
</svg>
